<?xml version="1.0" standalone="no"?>
<!DOCTYPE svg PUBLIC "-//W3C//DTD SVG 20010904//EN"
 "http://www.w3.org/TR/2001/REC-SVG-20010904/DTD/svg10.dtd">
<svg version="1.0" xmlns="http://www.w3.org/2000/svg"
 width="200.000000pt" height="200.000000pt" viewBox="0 0 200.000000 200.000000"
 preserveAspectRatio="xMidYMid meet">
<metadata>
Created by potrace 1.11, written by Peter Selinger 2001-2013
</metadata>
<g transform="translate(0.000000,200.000000) scale(0.100000,-0.100000)"
fill="#000000" stroke="none">
<path d="M930 1881 c-18 -9 -47 -33 -63 -53 -59 -73 -31 -185 56 -227 115 -56
242 36 223 162 -7 46 -42 94 -83 116 -36 18 -96 20 -133 2z m114 -83 c44 -40
36 -106 -15 -131 -83 -40 -157 59 -94 127 30 33 75 34 109 4z"/>
<path d="M1343 1668 c-67 -18 -123 -110 -108 -177 32 -146 224 -174 294 -42
63 117 -54 255 -186 219z m102 -93 c32 -31 32 -76 3 -109 -51 -56 -138 -24
-138 51 0 44 38 83 80 83 19 0 40 -9 55 -25z"/>
<path d="M548 1646 c-141 -52 -129 -256 17 -295 72 -19 147 15 179 83 59 126
-65 261 -196 212z m128 -112 c24 -58 -11 -113 -71 -113 -70 0 -108 77 -65 132
38 48 112 38 136 -19z"/>
<path d="M1042 1484 c-41 -28 -16 -94 35 -94 43 0 64 59 33 90 -24 24 -39 25
-68 4z"/>
<path d="M878 1473 c-8 -10 -14 -25 -13 -33 1 -8 3 -21 3 -28 1 -7 14 -17 28
-22 33 -13 62 2 70 36 13 50 -55 86 -88 47z"/>
<path d="M811 1341 c-26 -26 -27 -53 -3 -74 26 -23 58 -21 76 5 19 27 20 39 4
60 -22 28 -55 31 -77 9z"/>
<path d="M1116 1344 c-32 -32 -8 -84 39 -84 28 0 55 24 55 50 0 26 -27 50 -55
50 -13 0 -31 -7 -39 -16z"/>
<path d="M534 1211 c-107 -65 -102 -216 10 -270 23 -12 55 -21 69 -21 73 0
141 60 153 135 8 60 -26 131 -76 157 -45 24 -116 23 -156 -1z m133 -73 c55
-60 11 -153 -67 -142 -33 5 -70 48 -70 82 1 69 92 109 137 60z"/>
<path d="M1047 1212 c-24 -26 -21 -59 7 -77 37 -24 86 2 86 46 0 16 -39 49
-58 49 -11 0 -26 -8 -35 -18z"/>
<path d="M1335 1220 c-93 -39 -121 -168 -54 -245 96 -109 274 -40 272 107 -1
55 -33 107 -83 133 -31 16 -103 19 -135 5z m114 -77 c32 -26 38 -82 12 -114
-25 -32 -59 -40 -100 -23 -51 21 -59 94 -16 132 31 26 75 29 104 5z"/>
<path d="M886 1205 c-18 -18 -15 -63 6 -77 20 -13 70 -5 82 14 7 11 7 26 0 45
-11 34 -62 44 -88 18z"/>
<path d="M974 990 c-72 -16 -124 -88 -119 -164 5 -85 67 -140 155 -141 42 0
63 5 88 23 58 42 84 126 57 187 -13 30 -60 85 -73 85 -4 0 -23 4 -42 8 -19 5
-49 5 -66 2z m99 -101 c42 -51 2 -133 -64 -131 -73 2 -105 87 -53 139 21 21
32 24 62 19 20 -3 45 -15 55 -27z"/>
<path d="M611 495 c-5 -8 -7 -324 -2 -383 1 -18 212 -15 257 4 104 44 150 149
114 259 -14 41 -75 98 -122 114 -45 15 -237 19 -247 6z m250 -53 c118 -57 119
-226 1 -283 -32 -16 -64 -22 -125 -23 l-82 -1 -3 155 c-1 85 -1 159 2 165 2 6
35 10 83 10 59 -1 90 -6 124 -23z"/>
<path d="M1090 304 c0 -197 1 -204 20 -204 19 0 20 7 21 113 0 61 1 131 1 155
0 23 2 42 3 42 2 0 38 -58 82 -130 43 -72 83 -130 88 -130 6 0 46 58 88 130
43 72 79 130 81 130 1 0 2 -69 2 -152 0 -151 0 -153 22 -156 l22 -3 0 200 c0
117 -4 202 -10 206 -16 10 -43 -26 -119 -158 -41 -70 -77 -130 -81 -132 -4 -3
-46 60 -94 139 -55 92 -93 145 -106 149 -20 5 -20 1 -20 -199z"/>
</g>
</svg>
